<?xml version="1.0" standalone="no"?><!DOCTYPE svg PUBLIC "-//W3C//DTD SVG 1.1//EN" "http://www.w3.org/Graphics/SVG/1.1/DTD/svg11.dtd"><svg t="1625706842908" class="icon" viewBox="0 0 1024 1024" version="1.1" xmlns="http://www.w3.org/2000/svg" p-id="6583" xmlns:xlink="http://www.w3.org/1999/xlink" width="128" height="128"><defs><style type="text/css"></style></defs><path d="M915.7 301.4c-1.8-1-3.8-1.5-5.8-1.5-2.3 0-4.6 0.7-6.5 1.9L687 444.8V331.1c0-36.6-29.8-66.4-66.4-66.4H168.4c-36.6 0-66.4 29.8-66.4 66.4v361.8c0 36.6 29.8 66.4 66.4 66.4h452.3c36.6 0 66.4-29.8 66.4-66.4v-98.4l216.3 145.1c2 1.3 4.3 2 6.6 2 2 0 4-0.5 5.7-1.5 3.9-2.1 6.4-6.2 6.4-10.6V312.1c-0.1-4.5-2.5-8.5-6.4-10.7zM662.8 464.5l-0.1 0.6c-0.2 0.8-0.2 1.6-0.2 2.4v104c0 0.8 0.1 1.6 0.3 2.4l0.1 0.6v118.3c0 23.3-18.9 42.2-42.2 42.2H168.4c-23.3 0-42.2-18.9-42.2-42.2V331.1c0-23.3 18.9-42.2 42.2-42.2h452.3c23.3 0 42.2 18.9 42.2 42.2v133.4z m235 242.7L687 565.2v-91.3l210.8-139.8v373.1z" p-id="6584"></path><path d="M237.2 355.2h-32.7c-6.7 0-12.1 5.4-12.1 12.1 0 6.7 5.4 12.1 12.1 12.1h32.7c6.7 0 12.1-5.4 12.1-12.1 0-6.7-5.4-12.1-12.1-12.1z" p-id="6585"></path></svg>